# xmcd CD database file
#
# Track frame offsets:
#	150
#	27399
#	58031
#	81102
#	102877
#	137312
#	167625
#	203511
#
# Disc length: 3072 seconds
#
# Revision: 0
# Processed by: cddbd v1.5.2PL0 Copyright (c) Steve Scherf et al.
# Submitted via: CDex 1.70beta3
#
DISCID=5c0bfe08
DTITLE=梅津和時 Kiki Band - Amatsu-Kitsune
DYEAR=2017
DGENRE=Jazz
TTITLE0=Frozen August
TTITLE1=Sleeve of Armor
TTITLE2=Amatsu-Kitsune
TTITLE3=King's Seven
TTITLE4=Eurydike
TTITLE5=ZABO
TTITLE6=Bird Head Man Running
TTITLE7=Mata Hari
EXTD=YEAR: 2017
EXTT0=
EXTT1=
EXTT2=
EXTT3=
EXTT4=
EXTT5=
EXTT6=
EXTT7=
PLAYORDER=
